# xmcd CD database file
#
# Track frame offsets:
#	150
#	61819
#	128213
#	197051
#	240177
#	306209
#
# Disc length: 4673 seconds
#
# Revision: 0
# Processed by: cddbd v1.5.1PL0 Copyright (c) Steve Scherf et al.
# Submitted via: CDex 1.51
#
DISCID=47123f06
DTITLE=Herbie Hancock - Montreux '91
DYEAR=1991
DGENRE=Jazz
TTITLE0=Goodbye Pork Pie Hat
TTITLE1=Footprints
TTITLE2=Cantaloupe Island
TTITLE3=Amethyst Secrets
TTITLE4=Maiden Voyage
TTITLE5=On the Milky Way Express
EXTD=YEAR: 1991
EXTT0=
EXTT1=
EXTT2=
EXTT3=
EXTT4=
EXTT5=
PLAYORDER=
